<svg width="57.000000" height="91.000061" viewBox="0 0 57 91.0001" fill="none" xmlns="http://www.w3.org/2000/svg" xmlns:xlink="http://www.w3.org/1999/xlink">
	<desc>
			Created with Pixso.
	</desc>
	<defs/>
	<path id="Vector" d="M36.78 1.09C36.22 1.71 34.91 3.02 33.86 4.02C30.36 7.35 29.65 8.54 29.55 11.25C29.48 13.46 29.99 15.14 31.3 17.04C31.65 17.55 31.94 17.94 31.94 17.89C31.94 17.85 31.73 17.38 31.46 16.85C30.45 14.81 30.14 12.33 30.7 10.57C31.22 8.92 31.98 7.93 34.55 5.54C35.09 5.04 35.75 4.35 36.03 4.02L36.55 3.42L36.48 5.96C36.44 7.65 36.36 8.82 36.22 9.42C35.78 11.47 34.91 13.1 33.33 14.88C32.18 16.18 31.86 16.92 32.17 17.53C32.22 17.64 32.3 18.1 32.35 18.53L32.42 19.33L31.74 19.79C29.41 21.35 27.77 23.59 27.11 26.14C26.92 26.82 26.85 27.47 26.85 28.53C26.84 30.77 27.25 32.64 28.29 35L28.83 36.23L28.64 37.2C28.44 38.19 28.38 41.11 28.55 41.87C28.61 42.18 28.69 42.24 28.99 42.24L29.35 42.24L29.43 40.67C29.75 35.09 31.58 31.85 35.89 29.27C39.2 27.28 40.18 26.16 42.39 21.84C44.12 18.41 44.68 17.5 46.02 15.77L46.78 14.78L45.7 15.25C43.97 16 41.47 16.75 38.46 17.43C35.56 18.07 34.25 18.45 33.25 18.96C32.93 19.12 32.64 19.25 32.61 19.25C32.57 19.25 32.56 18.76 32.59 18.16C32.65 16.86 32.67 16.83 34.54 14.87C35.55 13.81 35.97 13.26 36.32 12.56C37.09 11.02 37.15 10.57 37.07 7.6C36.98 4.81 37.13 2.99 37.61 0.97C37.73 0.44 37.83 0.01 37.82 0C37.8 -0.02 37.33 0.48 36.78 1.09ZM42.34 20.11C39.91 24.6 38.23 26.5 34.35 29.14C33.59 29.66 32.7 30.31 32.38 30.58C31.18 31.57 29.82 33.54 29.3 35.01C29.18 35.36 29.05 35.6 29.01 35.54C28.82 35.24 28.3 32.76 28.18 31.61C27.78 27.79 29.19 24.44 32.16 22.2C33.86 20.9 35.4 20.3 38.52 19.73C39.84 19.49 41.95 18.87 42.86 18.47C43.06 18.39 43.23 18.33 43.26 18.34C43.27 18.35 42.86 19.15 42.34 20.11Z" fill="#074114" fill-opacity="1.000000" fill-rule="nonzero"/>
	<path id="Vector" d="M15.56 4.12C16.28 6.85 16.49 10.44 16.14 13.79C15.71 17.97 16.07 19.23 18.64 22.67C19.33 23.59 20.11 24.79 20.39 25.33C21.17 26.92 21.59 29.18 21.6 31.9L21.6 33.03L21.31 32.91C20.64 32.66 19.43 32.55 16.38 32.48C14.61 32.45 12.77 32.36 12.31 32.31C11.85 32.25 11.46 32.23 11.44 32.24C11.42 32.25 11.66 32.45 11.98 32.68C13.34 33.66 14.71 34.94 16.29 36.7C17.22 37.73 18.34 38.88 18.78 39.23C20.68 40.75 22.85 41.63 25.47 41.95C26.55 42.08 26.12 41.67 24.3 40.87C21.39 39.58 19.94 38.54 17.71 36.14C16.87 35.24 15.86 34.28 15.46 34L14.74 33.52L16.16 33.52C19.87 33.52 21.97 34.25 23.76 36.15C24.64 37.09 25.28 38.26 25.6 39.51C25.7 39.91 25.81 40.26 25.84 40.3C25.96 40.41 25.93 38.86 25.79 38.01C25.52 36.25 24.13 34.31 22.53 33.46L21.84 33.09L21.84 31.09C21.84 27.1 21.49 25.73 19.67 22.62C17.26 18.49 16.86 16.86 16.93 11.14C16.96 9.37 17 7.91 17.01 7.92C17.01 7.93 17.26 8.27 17.55 8.67C17.85 9.07 18.91 10.28 19.93 11.35C22.4 13.93 23.35 15.43 23.94 17.68C24.6 20.14 24.06 23.59 22.5 26.92C22.21 27.54 21.99 28.05 22.01 28.05C22.03 28.05 22.23 27.76 22.47 27.39C24.36 24.53 25.3 21.3 25.16 18.27C25.08 16.62 24.75 15.33 24.07 13.9C23.37 12.42 22.57 11.37 20.24 8.93C18.43 7.02 17.19 5.61 15.88 4.06L15.38 3.45L15.56 4.12Z" fill="#074114" fill-opacity="1.000000" fill-rule="nonzero"/>
	<path id="Vector" d="M37.18 33.89C34.42 34.49 32.55 36.95 32.54 39.97C32.54 40.57 32.51 40.62 32.16 40.74C31.54 40.96 31.99 41.07 33.94 41.15C36.72 41.27 38.42 40.95 39.87 40.01C40.27 39.75 41.27 38.94 42.1 38.21C43.79 36.73 44.66 36.1 46.09 35.34L47.04 34.84L45.88 34.75C45.26 34.72 44.13 34.56 43.38 34.43C42.64 34.29 41.45 34.08 40.75 33.95C39.28 33.69 38.21 33.66 37.18 33.89ZM41.16 35.4C41.75 35.55 42.67 35.71 43.18 35.74L44.12 35.83L42.8 36.89C40.8 38.51 39.47 39.24 37.77 39.68C36.9 39.91 33.01 40.5 32.92 40.42C32.82 40.31 33.17 39.18 33.59 38.3C34.33 36.77 35.71 35.67 37.47 35.22C38.36 34.99 39.76 35.07 41.16 35.4Z" fill="#074114" fill-opacity="1.000000" fill-rule="nonzero"/>
	<path id="Vector" d="M10.23 47.11C10.09 53.67 10.42 55.89 12.06 59.19C12.91 60.92 14.31 62.95 15.3 63.9C15.54 64.13 15.73 64.35 15.73 64.39C15.73 64.44 12.72 64.45 9.06 64.42C5.38 64.4 2.25 64.42 2.09 64.46C1.95 64.5 1.75 64.67 1.68 64.83C1.57 65.08 1.58 65.17 1.77 65.38C1.98 65.62 2.12 65.62 29.06 65.62C47.5 65.62 56.2 65.58 56.37 65.5C56.69 65.33 56.69 64.69 56.37 64.52C56.22 64.45 53.73 64.4 49.11 64.4L42.08 64.4L42.82 63.51C44.92 61.01 46.29 58.27 47.18 54.77C47.44 53.8 47.46 53.39 47.5 48.51L47.56 43.3L28.94 43.3L10.32 43.3L10.23 47.11Z" fill="#074114" fill-opacity="1.000000" fill-rule="nonzero"/>
	<path id="Vector" d="M5.21 67.27C9.3 69.21 15.6 70.79 21.47 71.35C22.51 71.46 22.98 71.55 22.8 71.59C22.55 71.66 22.53 71.68 22.74 71.69C22.87 71.7 23.69 71.76 24.55 71.83C28.98 72.16 38.45 71.96 38.19 71.55C38.15 71.49 38.16 71.46 38.24 71.5C38.3 71.53 38.51 71.52 38.71 71.46C39.05 71.37 39.05 71.37 38.58 71.34C38.29 71.33 38.9 71.19 40.09 70.98C43.77 70.36 46.81 69.61 49.3 68.69C50.72 68.17 53.49 66.97 53.69 66.78C53.75 66.72 44.31 66.67 28.9 66.68L4 66.7L5.21 67.27Z" fill="#074114" fill-opacity="1.000000" fill-rule="nonzero"/>
	<path id="TealuxE" d="M50.69 85.98Q50.75 85.98 50.77 85.98Q50.82 85.98 50.89 85.98Q50.96 85.99 51.04 85.99Q51.11 85.99 51.17 85.99Q51.22 86 51.24 86Q51.37 86 51.48 86.03Q51.59 86.06 51.71 86.06L51.74 86.06Q51.76 86.06 51.81 86.04Q51.87 86.03 51.93 86.02Q52 86.01 52.05 86Q52.11 86 52.13 86Q52.36 85.97 52.57 85.97Q52.78 85.97 53.02 85.89L53.1 85.89Q53.1 85.89 53.14 85.92L53.18 85.95Q53.19 85.95 53.22 85.95Q53.26 85.96 53.31 85.97L53.4 85.98Q53.45 85.99 53.47 86L53.51 86Q53.59 86 53.65 85.96Q53.68 85.94 53.71 85.91Q53.71 85.91 53.71 85.91Q53.78 85.83 53.82 85.72Q53.86 85.61 53.88 85.48Q53.89 85.35 53.9 85.27L53.9 84.47Q53.9 84.44 53.92 84.39Q53.94 84.33 53.94 84.31L53.94 84.26Q53.94 84.16 53.92 84.09Q53.9 84.02 53.9 83.92Q53.9 83.85 53.92 83.77Q53.92 83.77 53.92 83.76Q53.94 83.69 53.94 83.62L53.94 83.58L53.86 83.5Q53.81 83.45 53.78 83.43Q53.76 83.44 53.74 83.45Q53.73 83.47 53.71 83.48Q53.68 83.49 53.67 83.5Q53.66 83.51 53.6 83.57Q53.53 83.62 53.52 83.65Q53.51 83.66 53.5 83.71Q53.48 83.75 53.46 83.8Q53.43 83.86 53.41 83.89Q53.38 83.93 53.38 83.94Q53.37 83.95 53.34 83.99Q53.32 84.02 53.28 84.05Q53.25 84.09 53.22 84.12Q53.19 84.16 53.18 84.16Q53.18 84.18 53.16 84.24Q53.14 84.3 53.13 84.31Q53.13 84.33 53.08 84.39Q53.04 84.45 53.02 84.47Q53.01 84.48 52.98 84.56Q52.95 84.63 52.91 84.72Q52.87 84.81 52.83 84.88Q52.8 84.96 52.78 84.98Q52.74 85.04 52.69 85.12Q52.65 85.2 52.58 85.27Q52.52 85.34 52.45 85.4Q52.39 85.46 52.31 85.48L51.01 85.48Q51 85.48 50.96 85.49Q50.92 85.5 50.87 85.51Q50.82 85.52 50.78 85.53Q50.74 85.54 50.73 85.54L50.23 85.54Q50.15 85.54 50.06 85.52Q50.06 85.52 50.06 85.52Q49.98 85.51 49.9 85.48Q49.82 85.48 49.61 85.47Q49.41 85.47 49.18 85.46Q48.95 85.46 48.75 85.45Q48.55 85.44 48.47 85.44Q48.43 85.43 48.36 85.42Q48.28 85.41 48.21 85.41Q48.13 85.41 48.08 85.4Q48.02 85.39 48.01 85.38Q48 85.37 47.96 85.35Q47.93 85.32 47.9 85.29Q47.87 85.26 47.84 85.23Q47.81 85.2 47.81 85.18Q47.81 85.15 47.8 85.06Q47.8 84.97 47.8 84.94Q47.8 84.66 47.83 84.41Q47.85 84.16 47.85 83.89Q47.85 83.86 47.85 83.83Q47.84 83.8 47.81 83.75Q47.81 83.7 47.8 83.57Q47.79 83.45 47.78 83.31Q47.77 83.17 47.76 83.04Q47.76 82.92 47.76 82.86L47.76 82.78Q47.76 82.7 47.79 82.55Q47.81 82.39 47.84 82.23Q47.86 82.06 47.88 81.92Q47.91 81.78 47.91 81.74Q47.93 81.64 47.99 81.57Q48.04 81.51 48.11 81.47Q48.21 81.42 48.31 81.39Q48.38 81.38 48.45 81.38L48.52 81.38Q48.53 81.38 48.58 81.41Q48.63 81.44 48.63 81.46Q48.66 81.46 48.73 81.46Q48.8 81.47 48.88 81.47Q48.96 81.48 49.04 81.48Q49.11 81.49 49.15 81.49Q49.19 81.5 49.31 81.5L49.84 81.5Q49.95 81.5 50.01 81.49Q50.1 81.51 50.16 81.56Q50.2 81.59 50.23 81.64Q50.29 81.76 50.32 81.94Q50.34 82.13 50.34 82.34Q50.34 82.55 50.36 82.75Q50.37 82.95 50.41 83.12Q50.45 83.28 50.55 83.37Q50.56 83.38 50.57 83.39Q50.59 83.42 50.66 83.46Q50.72 83.5 50.73 83.5Q50.75 83.5 50.8 83.46Q50.86 83.42 50.87 83.39Q50.94 83.27 50.97 83.18Q50.99 83.08 50.99 82.97Q50.99 82.94 50.99 82.89Q50.98 82.84 50.98 82.79Q50.98 82.74 50.98 82.69Q50.98 82.64 50.98 82.61Q50.98 82.59 50.97 82.52Q50.96 82.45 50.95 82.36Q50.94 82.28 50.94 82.2Q50.93 82.13 50.93 82.11Q50.93 82.09 50.94 82.05Q50.95 82.02 50.96 81.97Q50.97 81.93 50.98 81.89L50.99 81.86Q51 81.84 51.01 81.77Q51.03 81.71 51.03 81.65Q51.03 81.54 51.02 81.43Q51.01 81.31 51.01 81.3Q51.02 81.25 51.03 81.12Q51.04 80.99 51.05 80.82Q51.07 80.64 51.08 80.45Q51.09 80.25 51.11 80.08Q51.12 79.91 51.13 79.78Q51.13 79.65 51.14 79.61Q51.14 79.59 51.13 79.55Q51.13 79.5 51.13 79.45Q51.13 79.41 51.13 79.38Q51.14 79.36 51.14 79.35Q51.16 79.28 51.17 79.25Q51.18 79.23 51.18 79.17Q51.18 79.02 51.13 78.95Q51.08 78.88 50.93 78.88Q50.79 78.88 50.73 78.93Q50.72 78.94 50.71 78.96Q50.66 79.01 50.64 79.07Q50.62 79.16 50.61 79.26Q50.6 79.36 50.57 79.45Q50.57 79.46 50.55 79.49Q50.53 79.51 50.51 79.55Q50.49 79.58 50.48 79.61Q50.46 79.64 50.46 79.64Q50.44 79.67 50.43 79.74Q50.42 79.82 50.4 79.91Q50.39 80 50.38 80.08Q50.37 80.16 50.36 80.18Q50.31 80.29 50.27 80.47Q50.22 80.64 50.12 80.73Q50.07 80.73 49.95 80.74Q49.82 80.75 49.68 80.75Q49.54 80.75 49.42 80.76Q49.29 80.77 49.24 80.77L48.63 80.77Q48.63 80.77 48.58 80.78Q48.54 80.79 48.48 80.8Q48.43 80.81 48.38 80.82Q48.33 80.83 48.32 80.83L47.97 80.83Q47.94 80.83 47.91 80.79Q47.87 80.75 47.85 80.73L47.85 80.68Q47.85 80.44 47.88 80.22Q47.91 79.99 47.91 79.77Q47.91 79.45 47.88 79.14Q47.85 78.83 47.85 78.52Q47.85 78.43 47.87 78.34Q47.88 78.23 47.91 78.12Q47.96 77.92 47.97 77.7L47.97 76.86Q47.97 76.84 48 76.82Q48.04 76.81 48.07 76.81L48.47 76.81Q48.49 76.81 48.58 76.8Q48.67 76.79 48.78 76.78Q48.89 76.77 48.98 76.76Q49.07 76.75 49.1 76.75L49.3 76.75Q49.31 76.75 49.36 76.76Q49.42 76.77 49.48 76.78Q49.54 76.79 49.59 76.8Q49.64 76.81 49.65 76.81L50.01 76.81Q50.07 76.81 50.22 76.82Q50.38 76.83 50.55 76.85Q50.72 76.86 50.87 76.87Q51.03 76.88 51.08 76.88Q51.19 76.92 51.25 76.98Q51.31 77.04 51.36 77.1Q51.41 77.17 51.46 77.24Q51.51 77.31 51.59 77.36Q51.61 77.37 51.65 77.39Q51.69 77.4 51.7 77.41Q51.71 77.44 51.75 77.47Q51.78 77.5 51.79 77.52Q51.81 77.54 51.82 77.56Q51.93 77.69 52.01 77.84Q52.1 78.02 52.19 78.15Q52.2 78.16 52.23 78.19Q52.26 78.21 52.28 78.24L52.33 78.29Q52.36 78.31 52.36 78.32Q52.4 78.38 52.42 78.43Q52.43 78.49 52.45 78.54Q52.47 78.59 52.51 78.64Q52.54 78.69 52.62 78.74L52.67 78.74Q52.73 78.74 52.78 78.72Q52.79 78.72 52.8 78.71Q52.84 78.69 52.87 78.64L52.87 78.26Q52.87 78.23 52.86 78.14Q52.86 78.05 52.85 77.96Q52.84 77.86 52.83 77.77Q52.82 77.69 52.82 77.66Q52.81 77.56 52.79 77.38Q52.78 77.2 52.75 77.02Q52.72 76.83 52.68 76.68Q52.63 76.53 52.56 76.49Q52.53 76.46 52.47 76.42Q52.41 76.39 52.35 76.36Q52.3 76.33 52.25 76.31Q52.2 76.29 52.19 76.29Q52.19 76.28 52.11 76.27Q52.02 76.26 51.92 76.25L51.71 76.24Q51.6 76.23 51.54 76.23L50.73 76.23Q50.71 76.23 50.63 76.22Q50.55 76.21 50.46 76.21Q50.38 76.21 50.3 76.2Q50.23 76.19 50.21 76.19L50.12 76.19Q50.08 76.19 50.01 76.2Q49.95 76.21 49.87 76.21Q49.8 76.21 49.74 76.22Q49.68 76.23 49.65 76.23L48.14 76.23Q47.87 76.23 47.6 76.23Q47.33 76.24 47.04 76.24Q46.69 76.24 46.35 76.23Q46.01 76.22 45.67 76.19Q45.65 76.19 45.61 76.17Q45.59 76.15 45.57 76.13L45.54 76.13Q45.33 76.13 45.2 76.16Q45.07 76.19 44.91 76.29Q44.89 76.29 44.89 76.29Q44.88 76.3 44.87 76.31L44.84 76.32Q44.84 76.46 44.91 76.55Q44.91 76.55 44.91 76.55Q44.93 76.57 44.95 76.59Q45.01 76.66 45.09 76.69Q45.2 76.75 45.33 76.77Q45.46 76.79 45.57 76.81Q45.6 76.81 45.71 76.82Q45.81 76.83 45.92 76.83Q46.04 76.83 46.14 76.84Q46.24 76.85 46.28 76.86Q46.35 76.91 46.39 76.98Q46.4 77 46.41 77.02Q46.42 77.04 46.42 77.05Q46.45 77.13 46.47 77.22Q46.48 77.33 46.49 77.44Q46.49 77.55 46.53 77.66Q46.53 77.72 46.52 77.87Q46.51 78.02 46.51 78.19Q46.5 78.37 46.49 78.52Q46.49 78.67 46.48 78.74Q46.48 78.76 46.47 78.84Q46.47 78.92 46.46 79.02Q46.45 79.11 46.45 79.2Q46.44 79.28 46.44 79.3L46.44 79.35Q46.44 79.88 46.46 80.41Q46.48 80.94 46.48 81.49L46.48 81.86Q46.48 81.9 46.48 82.02Q46.47 82.14 46.47 82.3Q46.47 82.47 46.46 82.65Q46.45 82.83 46.45 82.99Q46.45 83.16 46.44 83.28Q46.44 83.4 46.44 83.43Q46.44 83.86 46.42 84.26Q46.41 84.66 46.33 85.06Q46.33 85.08 46.31 85.12Q46.29 85.17 46.28 85.18Q46.23 85.22 46.16 85.3Q46.08 85.38 46.07 85.38L45.42 85.38Q45.36 85.38 45.29 85.42Q45.23 85.46 45.17 85.51Q45.11 85.56 45.07 85.63Q45.04 85.69 45.04 85.75Q45.03 85.76 45.03 85.77Q45.04 85.77 45.04 85.77Q45.04 85.77 45.04 85.77Q45.04 85.78 45.06 85.78Q45.13 85.97 45.23 86.01Q45.32 86.04 45.5 86.04L45.53 86.04Q45.55 86.04 45.57 86.04Q45.6 86.04 45.62 86.03Q45.63 86.03 45.68 86.02Q45.73 86.02 45.79 86.01Q45.85 86.01 45.9 86Q45.95 86 45.97 86Q46.03 86 46.19 85.99Q46.35 85.98 46.53 85.98Q46.71 85.98 46.87 85.99Q47.03 86 47.09 86Q47.16 85.96 47.2 85.95Q47.25 85.95 47.32 85.95Q47.42 85.95 47.49 85.96Q47.56 85.97 47.66 86.01L49.45 86.01L50.29 86.06L50.46 86L50.5 85.99Q50.54 85.99 50.59 85.99Q50.64 85.99 50.69 85.98ZM4.37 85.91L4.53 85.91Q5.24 85.91 5.93 86.01Q5.97 86.01 6 86.02Q6.24 86.05 6.46 86.09Q6.67 86.12 6.93 86.12L6.94 86.12Q7.08 86.04 7.17 85.95Q7.18 85.94 7.19 85.93Q7.25 85.84 7.25 85.71Q7.25 85.64 7.24 85.58Q7.22 85.53 7.19 85.48Q7.18 85.46 7.16 85.44Q7.1 85.37 7 85.33Q6.95 85.33 6.83 85.33Q6.71 85.32 6.58 85.31Q6.45 85.3 6.33 85.3Q6.21 85.29 6.15 85.28Q6.04 85.28 5.91 85.26Q5.79 85.25 5.68 85.21Q5.61 85.18 5.56 85.13Q5.53 85.11 5.52 85.09Q5.45 85 5.45 84.86Q5.45 84.38 5.47 83.9Q5.5 83.42 5.5 82.95Q5.5 82.56 5.47 82.19Q5.45 81.82 5.45 81.44Q5.45 81.09 5.5 80.76Q5.55 80.43 5.55 80.08Q5.55 79.99 5.56 79.72Q5.57 79.45 5.57 79.14Q5.57 78.83 5.56 78.56Q5.55 78.3 5.55 78.19Q5.56 78.17 5.57 78.12Q5.57 78.07 5.58 78.01Q5.58 77.96 5.59 77.9Q5.59 77.85 5.6 77.83Q5.6 77.83 5.63 77.75Q5.67 77.67 5.7 77.62Q5.71 77.59 5.76 77.53Q5.79 77.5 5.81 77.47Q5.81 77.46 5.91 77.43Q6.02 77.41 6.07 77.41L6.73 77.41Q6.76 77.41 6.84 77.44Q6.93 77.47 6.94 77.47Q7.14 77.5 7.31 77.5Q7.48 77.5 7.66 77.57Q7.94 77.7 8.2 77.87Q8.34 77.97 8.43 78.09Q8.52 78.2 8.58 78.35Q8.62 78.44 8.66 78.55Q8.7 78.67 8.76 78.77Q8.78 78.83 8.82 78.88Q8.85 78.92 8.88 78.96Q8.92 79.01 8.97 79.05Q9.01 79.08 9.05 79.1Q9.07 79.11 9.09 79.12Q9.11 79.14 9.13 79.14Q9.16 79.14 9.2 79.12Q9.24 79.1 9.26 79.05Q9.29 78.87 9.3 78.72Q9.31 78.58 9.31 78.4L9.31 78.3Q9.31 78.29 9.31 78.25Q9.3 78.22 9.29 78.17Q9.28 78.13 9.27 78.09Q9.26 78.06 9.26 78.04Q9.25 77.96 9.22 77.74Q9.2 77.52 9.17 77.27Q9.15 77.03 9.13 76.8Q9.11 76.58 9.1 76.5Q9.05 76.37 8.96 76.32Q8.9 76.29 8.82 76.29L8.74 76.29Q8.62 76.33 8.5 76.43Q8.38 76.53 8.26 76.64Q8.14 76.75 8.01 76.82Q7.89 76.9 7.77 76.9L6.54 76.89Q6.23 76.89 6.02 76.89Q5.82 76.9 5.69 76.9Q5.55 76.91 5.47 76.92Q5.4 76.94 5.34 76.96Q5.31 76.96 5.23 76.95Q5.14 76.94 5.04 76.93Q4.94 76.92 4.85 76.91Q4.77 76.9 4.74 76.9Q4.73 76.9 4.68 76.89Q4.64 76.89 4.59 76.89L4.4 76.89Q4.22 76.89 4.07 76.92Q3.93 76.96 3.75 76.96L3.53 76.96Q3.52 76.96 3.49 76.95Q3.46 76.94 3.43 76.93Q3.4 76.92 3.37 76.91L3.34 76.9Q3.06 76.86 2.78 76.84Q2.49 76.83 2.2 76.83Q2.04 76.83 1.88 76.83Q1.72 76.84 1.58 76.84Q1.55 76.83 1.53 76.82Q1.47 76.79 1.43 76.74Q1.37 76.66 1.31 76.58Q1.25 76.51 1.17 76.45Q1.17 76.44 1.16 76.43Q1.09 76.38 0.99 76.38Q0.94 76.38 0.9 76.4Q0.88 76.41 0.86 76.43Q0.84 76.44 0.83 76.46Q0.79 76.49 0.76 76.53Q0.73 76.6 0.7 76.67Q0.68 76.74 0.66 76.79Q0.66 76.81 0.63 76.87Q0.61 76.93 0.58 77.01Q0.56 77.08 0.53 77.14Q0.51 77.2 0.51 77.22Q0.5 77.24 0.49 77.3Q0.47 77.37 0.46 77.45Q0.44 77.53 0.43 77.59Q0.41 77.66 0.41 77.68Q0.4 77.7 0.37 77.79Q0.35 77.87 0.32 77.96Q0.3 78.06 0.27 78.14Q0.25 78.23 0.24 78.25L0.24 78.29Q0.24 78.33 0.24 78.38Q0.23 78.42 0.23 78.47L0.23 78.6Q0.23 78.65 0.24 78.7Q0.24 78.76 0.24 78.8L0.24 78.87Q0.26 78.93 0.3 78.97Q0.3 78.97 0.3 78.98Q0.34 79.02 0.41 79.02Q0.47 79.02 0.52 78.99Q0.56 78.97 0.6 78.94Q0.67 78.87 0.73 78.77Q0.78 78.67 0.83 78.56Q0.87 78.46 0.92 78.39Q0.92 78.39 1 78.3Q1.07 78.22 1.16 78.11Q1.25 78 1.34 77.9Q1.43 77.79 1.49 77.73L1.54 77.68Q1.58 77.63 1.58 77.62Q1.67 77.56 1.77 77.54Q1.79 77.53 1.81 77.53Q1.94 77.51 2.04 77.47Q2.09 77.48 2.22 77.48L2.75 77.48Q2.87 77.48 2.91 77.47Q2.93 77.47 2.98 77.46Q3.04 77.45 3.1 77.44Q3.15 77.43 3.2 77.42Q3.26 77.41 3.27 77.41Q3.3 77.41 3.39 77.42Q3.47 77.42 3.57 77.43Q3.66 77.44 3.74 77.45Q3.83 77.46 3.86 77.47Q3.96 77.56 4.02 77.65Q4.08 77.74 4.11 77.88Q4.11 77.97 4.11 78.2Q4.1 78.43 4.1 78.68Q4.1 78.94 4.1 79.18Q4.1 79.41 4.1 79.51Q4.1 79.8 4.1 80.09Q4.11 80.38 4.11 80.68Q4.11 81.39 4.1 82.11Q4.1 82.82 4.06 83.53Q4.06 83.55 4.05 83.64Q4.04 83.72 4.02 83.81Q4.01 83.9 4 83.97Q3.99 84.05 3.99 84.07L3.99 84.83Q3.99 84.93 3.97 85.03Q3.95 85.11 3.91 85.19Q3.91 85.2 3.9 85.2Q3.87 85.24 3.82 85.26Q3.76 85.29 3.69 85.31Q3.62 85.33 3.55 85.33Q3.48 85.33 3.44 85.33Q3.37 85.35 3.2 85.36Q3.03 85.37 2.84 85.38Q2.65 85.39 2.48 85.39Q2.31 85.4 2.24 85.41Q2.23 85.41 2.22 85.42Q2.16 85.46 2.13 85.53Q2.09 85.62 2.09 85.71Q2.09 85.79 2.13 85.85Q2.14 85.87 2.16 85.89Q2.24 85.95 2.34 85.98Q2.44 86.01 2.56 86.01Q2.67 86.02 2.74 86.02Q3.1 86.02 3.45 86.01Q3.81 86 4.16 85.96Q4.16 85.96 4.2 85.95Q4.23 85.95 4.27 85.94Q4.3 85.93 4.33 85.92Q4.36 85.91 4.37 85.91ZM31.44 80.37Q31.47 80.45 31.5 80.58Q31.49 80.66 31.48 80.82Q31.48 80.97 31.48 81.17L31.48 82.93Q31.48 83.12 31.48 83.27Q31.49 83.42 31.5 83.5Q31.5 83.87 31.55 84.25Q31.61 84.63 31.75 84.96Q31.8 85.05 31.85 85.12Q31.91 85.2 31.97 85.26Q32.04 85.32 32.1 85.38Q32.16 85.45 32.21 85.54L32.26 85.57Q32.3 85.61 32.38 85.67Q32.47 85.73 32.55 85.79Q32.64 85.85 32.71 85.9Q32.77 85.94 32.79 85.95Q32.85 85.98 32.91 86Q32.92 86 32.94 86.01Q33.01 86.02 33.09 86.03Q33.17 86.04 33.25 86.06Q33.3 86.06 33.35 86.08Q33.38 86.09 33.41 86.1L33.82 86.1Q33.95 86.1 34.05 86.09Q34.15 86.08 34.25 86.06Q34.35 86.04 34.44 86.03Q34.54 86.01 34.67 86L34.87 86Q34.88 85.99 34.93 85.96Q34.97 85.93 35.03 85.89Q35.09 85.84 35.15 85.81Q35.2 85.77 35.23 85.75Q35.45 85.56 35.64 85.37Q35.78 85.25 35.88 85.09Q35.92 85.03 35.96 84.96Q35.97 84.94 36.01 84.86Q36.05 84.79 36.1 84.7Q36.14 84.61 36.18 84.53Q36.21 84.46 36.23 84.44Q36.23 84.43 36.28 84.36Q36.33 84.29 36.33 84.27Q36.33 84.27 36.35 84.22Q36.36 84.18 36.36 84.13Q36.36 84.07 36.37 84.02Q36.38 83.97 36.39 83.96Q36.39 83.94 36.4 83.89Q36.42 83.84 36.43 83.78Q36.45 83.72 36.46 83.67Q36.48 83.62 36.49 83.6Q36.51 83.53 36.51 83.47Q36.51 83.4 36.52 83.34Q36.53 83.27 36.54 83.21Q36.55 83.14 36.59 83.08Q36.59 83 36.6 82.82Q36.61 82.63 36.62 82.42Q36.63 82.21 36.64 82.03Q36.64 81.85 36.65 81.77L36.65 81.2Q36.65 81.2 36.67 81.13Q36.7 81.06 36.7 81.04L36.7 80.92Q36.7 80.81 36.67 80.73Q36.65 80.65 36.65 80.54Q36.65 80.48 36.67 80.42Q36.68 80.37 36.72 80.31Q36.76 80.25 36.81 80.21Q36.85 80.18 36.9 80.16Q36.99 80.12 37.1 80.1Q37.22 80.08 37.32 80.04Q37.41 80.01 37.47 79.95Q37.47 79.94 37.48 79.94Q37.54 79.86 37.54 79.73Q37.54 79.71 37.54 79.66Q37.54 79.6 37.52 79.58Q37.44 79.52 37.31 79.5Q37.18 79.48 37.04 79.48Q36.95 79.48 36.86 79.49Q36.78 79.49 36.72 79.49L36.29 79.49Q36.22 79.49 36.11 79.51Q36.01 79.54 35.95 79.54Q35.84 79.54 35.71 79.52Q35.59 79.51 35.47 79.51Q35.3 79.51 35.14 79.55Q35.09 79.56 35.04 79.58Q34.95 79.62 34.87 79.71Q34.87 79.73 34.86 79.74Q34.85 79.76 34.85 79.77Q34.85 79.82 34.85 79.84Q34.86 79.85 34.87 79.88Q34.99 80.03 35.13 80.08Q35.27 80.13 35.44 80.16Q35.47 80.18 35.5 80.18Q35.53 80.18 35.55 80.17Q35.58 80.16 35.61 80.16Q35.65 80.16 35.7 80.21Q35.71 80.21 35.73 80.25Q35.74 80.29 35.75 80.32Q35.77 80.35 35.82 80.45Q35.86 80.55 35.87 80.58Q35.87 80.64 35.88 80.79Q35.89 80.94 35.91 81.1Q35.92 81.26 35.94 81.41Q35.95 81.55 35.96 81.61L35.96 82.2Q35.96 82.21 35.95 82.25Q35.95 82.29 35.94 82.33Q35.94 82.38 35.93 82.42Q35.92 82.45 35.92 82.46Q35.9 82.69 35.9 82.93Q35.89 83.17 35.88 83.41Q35.86 83.65 35.82 83.88Q35.78 84.12 35.7 84.33Q35.7 84.34 35.69 84.39Q35.67 84.44 35.65 84.49Q35.64 84.54 35.62 84.59Q35.6 84.63 35.6 84.65Q35.51 84.79 35.36 84.95Q35.22 85.11 35.04 85.18Q35.04 85.18 35.03 85.18Q35 85.19 34.93 85.2Q34.87 85.21 34.82 85.22Q34.74 85.24 34.67 85.26L34.56 85.26Q34.56 85.26 34.52 85.28Q34.48 85.29 34.44 85.31Q34.39 85.33 34.35 85.35Q34.31 85.37 34.3 85.38L34.21 85.38Q34.13 85.38 34.07 85.36Q34.01 85.34 33.96 85.31Q33.9 85.29 33.84 85.27Q33.78 85.24 33.7 85.24L33.7 85.24Q33.7 85.23 33.66 85.23Q33.62 85.23 33.57 85.21Q33.53 85.18 33.51 85.18Q33.43 85.16 33.34 85.09Q33.25 85.01 33.16 84.91Q33.07 84.81 33 84.71Q32.92 84.61 32.9 84.54Q32.87 84.49 32.84 84.41Q32.81 84.33 32.79 84.24Q32.77 84.15 32.75 84.06Q32.73 83.98 32.72 83.92Q32.72 83.89 32.72 83.81Q32.71 83.73 32.71 83.63Q32.7 83.54 32.69 83.46Q32.69 83.37 32.68 83.34Q32.68 83.32 32.68 83.27Q32.67 83.21 32.66 83.15Q32.65 83.09 32.64 83.04Q32.63 82.98 32.63 82.97L32.63 82.82Q32.64 82.8 32.66 82.71Q32.68 82.63 32.68 82.6L32.68 82Q32.68 81.98 32.69 81.91Q32.7 81.85 32.7 81.78Q32.71 81.71 32.71 81.65Q32.72 81.59 32.72 81.57L32.72 81.57Q32.74 81.56 32.74 81.52Q32.75 81.48 32.75 81.46Q32.75 81.37 32.72 81.3Q32.68 81.23 32.68 81.12Q32.68 81.03 32.69 80.92Q32.7 80.8 32.72 80.68Q32.75 80.56 32.79 80.45Q32.83 80.35 32.9 80.27Q32.96 80.2 33.07 80.15Q33.18 80.11 33.3 80.06Q33.41 80.01 33.49 79.95Q33.52 79.93 33.54 79.9Q33.57 79.85 33.57 79.77Q33.57 79.67 33.52 79.6Q33.49 79.57 33.44 79.55Q33.31 79.49 33.15 79.49L33.1 79.49Q33.09 79.49 33.03 79.51Q32.96 79.54 32.94 79.54Q32.81 79.56 32.71 79.56L32.49 79.58Q32.38 79.58 32.26 79.58L31.75 79.58Q31.56 79.55 31.43 79.53Q31.31 79.51 31.19 79.51Q31.12 79.51 31.03 79.52Q30.95 79.53 30.88 79.54Q30.85 79.55 30.78 79.56Q30.72 79.58 30.71 79.58Q30.71 79.59 30.7 79.59Q30.68 79.61 30.68 79.65Q30.67 79.69 30.67 79.71Q30.67 79.75 30.7 79.83Q30.72 79.92 30.76 79.97Q30.78 79.98 30.86 80Q30.93 80.01 31.01 80.05L31.21 80.15Q31.3 80.19 31.35 80.24Q31.41 80.29 31.44 80.37ZM9.81 85.92Q9.85 85.97 9.85 86Q9.89 86.01 9.98 86.03Q10.06 86.04 10.15 86.06Q10.24 86.08 10.31 86.09Q10.39 86.1 10.43 86.1Q10.46 86.1 10.54 86.08Q10.62 86.05 10.65 86.03Q10.67 86.03 10.71 86.04Q10.75 86.04 10.8 86.04Q10.84 86.04 10.84 86.03L10.84 86.03Q10.86 86.03 10.91 86.03Q10.96 86.02 11.01 86.02Q11.06 86.02 11.11 86.01Q11.15 86 11.17 86L13.76 86Q13.79 86 13.92 85.99Q14.04 85.98 14.18 85.97Q14.32 85.97 14.45 85.96Q14.57 85.95 14.6 85.93L14.85 85.93Q14.9 85.95 15.03 85.95Q15.16 85.96 15.31 85.97Q15.45 85.97 15.58 85.98Q15.7 85.99 15.75 86Q15.77 85.99 15.78 85.99Q15.86 85.98 15.93 85.92Q16.02 85.85 16.08 85.75Q16.13 85.67 16.16 85.59Q16.17 85.56 16.18 85.53Q16.21 85.42 16.21 85.33L16.21 85.31Q16.21 85.28 16.2 85.15Q16.2 85.02 16.19 84.88Q16.19 84.73 16.18 84.6Q16.18 84.47 16.18 84.44L16.18 84.29Q16.18 84.24 16.17 84.19Q16.16 84.16 16.16 84.13Q16.15 84.1 16.13 84.09Q16.1 84.05 16.03 84.05L16.02 84.05L16.02 84.05Q16.01 84.06 16.01 84.07Q16 84.08 15.98 84.09Q15.96 84.11 15.96 84.12Q15.96 84.13 15.93 84.17Q15.91 84.2 15.88 84.25Q15.85 84.29 15.83 84.33Q15.81 84.37 15.8 84.39Q15.79 84.4 15.77 84.43Q15.74 84.46 15.7 84.49Q15.67 84.53 15.64 84.55Q15.6 84.57 15.59 84.57Q15.59 84.59 15.55 84.66Q15.51 84.72 15.48 84.74Q15.42 84.86 15.39 84.98Q15.36 85.09 15.28 85.2Q15.26 85.24 15.24 85.26Q15.22 85.28 15.2 85.28Q15.18 85.28 15.15 85.29Q15.12 85.29 15.07 85.31Q15.06 85.31 15.03 85.34Q15.01 85.37 14.97 85.4Q14.93 85.43 14.9 85.45Q14.86 85.48 14.85 85.48L14.39 85.48Q14.38 85.48 14.33 85.49Q14.29 85.5 14.23 85.51Q14.18 85.52 14.13 85.53Q14.08 85.54 14.07 85.54L13.03 85.54Q13.02 85.52 12.98 85.5Q12.95 85.48 12.94 85.48Q12.76 85.43 12.65 85.41Q12.53 85.39 12.46 85.35Q12.44 85.34 12.43 85.33Q12.38 85.29 12.35 85.21Q12.31 85.11 12.31 84.91Q12.31 84.5 12.34 84.13Q12.37 83.76 12.37 83.36L12.37 83.12L12.46 83.01Q12.47 83.01 12.5 83.01Q12.54 83.01 12.58 83.01Q12.63 83.01 12.67 83Q12.72 83 12.74 83Q12.77 83 12.83 83Q12.89 83.01 12.96 83.01Q13.02 83.01 13.08 83.01Q13.13 83.01 13.15 83.01Q13.17 83.01 13.26 83.02Q13.35 83.04 13.44 83.05Q13.54 83.07 13.63 83.09Q13.72 83.11 13.76 83.12Q13.81 83.15 13.86 83.18Q13.91 83.2 13.93 83.23Q13.93 83.26 13.94 83.34Q13.95 83.41 13.95 83.5Q13.96 83.58 13.97 83.65Q13.98 83.73 13.99 83.75Q14 83.81 14.02 83.88Q14.05 83.95 14.09 84.02Q14.13 84.09 14.18 84.13Q14.22 84.17 14.26 84.18Q14.27 84.18 14.28 84.18Q14.36 84.18 14.42 84.15Q14.48 84.12 14.56 84.07Q14.56 84.05 14.57 83.99Q14.58 83.94 14.58 83.88Q14.58 83.82 14.59 83.77Q14.6 83.73 14.6 83.71L14.6 83.12Q14.6 83.07 14.61 82.93Q14.62 82.79 14.62 82.63Q14.63 82.47 14.64 82.33Q14.64 82.19 14.65 82.13Q14.69 82.07 14.7 82.01Q14.71 81.96 14.71 81.89L14.71 81.64Q14.71 81.55 14.69 81.48Q14.68 81.46 14.66 81.44Q14.63 81.41 14.57 81.41Q14.48 81.41 14.39 81.43Q14.32 81.44 14.27 81.48Q14.26 81.5 14.25 81.51Q14.23 81.52 14.22 81.62Q14.21 81.71 14.19 81.74Q14.19 81.74 14.16 81.81Q14.12 81.88 14.08 81.97L14 82.16Q13.96 82.25 13.93 82.3Q13.93 82.3 13.91 82.33Q13.9 82.36 13.88 82.39Q13.86 82.43 13.84 82.46Q13.83 82.5 13.82 82.51Q13.58 82.54 13.4 82.55Q13.23 82.56 13 82.56L12.62 82.56Q12.55 82.54 12.48 82.47Q12.42 82.41 12.37 82.35Q12.36 82.32 12.35 82.24Q12.34 82.15 12.33 82.06Q12.33 81.97 12.32 81.89Q12.31 81.8 12.31 81.77L12.31 81.68Q12.31 81.61 12.33 81.44Q12.34 81.27 12.36 81.08Q12.37 80.89 12.39 80.72Q12.41 80.55 12.42 80.47Q12.45 80.38 12.49 80.29Q12.53 80.2 12.58 80.12Q12.59 80.1 12.61 80.08Q12.65 80.03 12.71 80Q12.79 79.95 12.91 79.95L12.94 79.95Q12.96 79.95 13.05 79.96Q13.14 79.96 13.25 79.96Q13.36 79.97 13.45 79.97Q13.54 79.98 13.56 79.99L13.58 79.99Q13.61 79.99 13.65 79.97Q13.7 79.95 13.73 79.95L13.76 79.95Q13.78 79.96 13.83 79.98Q13.89 79.99 13.95 80.01Q14.02 80.02 14.07 80.03Q14.12 80.05 14.15 80.05Q14.15 80.05 14.18 80.06Q14.22 80.07 14.27 80.08Q14.31 80.09 14.35 80.1Q14.38 80.1 14.39 80.1L14.4 80.1Q14.43 80.11 14.45 80.16Q14.47 80.18 14.51 80.24Q14.56 80.3 14.61 80.37Q14.66 80.44 14.7 80.51Q14.75 80.57 14.76 80.58Q14.77 80.59 14.84 80.65Q14.91 80.72 14.92 80.75Q14.97 80.82 15 80.89Q15.02 80.93 15.03 80.96Q15.06 81.08 15.1 81.2Q15.13 81.27 15.17 81.35Q15.18 81.38 15.21 81.42Q15.27 81.52 15.38 81.61Q15.38 81.61 15.38 81.61Q15.39 81.62 15.4 81.62L15.43 81.62Q15.44 81.62 15.44 81.62Q15.44 81.61 15.44 81.61Q15.46 81.61 15.49 81.57Q15.53 81.53 15.54 81.51Q15.55 81.46 15.56 81.35Q15.58 81.24 15.6 81.12Q15.62 81 15.63 80.89Q15.64 80.79 15.64 80.75L15.64 79.95Q15.6 79.79 15.51 79.69Q15.51 79.69 15.51 79.68Q15.42 79.58 15.22 79.58L12.01 79.58Q11.97 79.58 11.89 79.57Q11.81 79.56 11.72 79.56Q11.62 79.55 11.54 79.54Q11.45 79.54 11.42 79.53L11.25 79.53Q10.93 79.53 10.61 79.56Q10.3 79.6 9.97 79.58Q9.94 79.67 9.94 79.71Q9.93 79.76 9.93 79.82Q9.93 79.95 10 80.02Q10.03 80.04 10.06 80.05Q10.19 80.1 10.39 80.1L10.67 80.1Q10.78 80.1 10.87 80.12Q10.97 80.13 11.05 80.17Q11.06 80.18 11.07 80.19Q11.13 80.23 11.17 80.3Q11.22 80.38 11.22 80.52L11.22 83.5Q11.21 83.52 11.2 83.58Q11.19 83.63 11.18 83.69Q11.16 83.76 11.16 83.81Q11.15 83.87 11.15 83.89L11.15 83.94Q11.15 84.18 11.16 84.39Q11.17 84.61 11.17 84.85L11.17 84.96Q11.17 85.05 11.15 85.16Q11.15 85.21 11.12 85.25Q11.09 85.29 11.04 85.31L11.01 85.33Q10.98 85.34 10.94 85.35L10.87 85.37Q10.83 85.38 10.81 85.38L10.32 85.38Q10.29 85.38 10.21 85.4Q10.13 85.41 10.12 85.43Q10.1 85.45 10.05 85.5Q10 85.54 9.94 85.6Q9.88 85.66 9.83 85.71Q9.78 85.77 9.77 85.8L9.77 85.83Q9.78 85.87 9.81 85.92ZM42.13 80.54Q42.12 80.55 42.1 80.55Q42.07 80.6 42.02 80.72Q41.97 80.83 41.91 80.96Q41.84 81.09 41.77 81.21Q41.7 81.33 41.63 81.38Q41.46 81.51 41.36 81.58Q41.25 81.65 41.17 81.65Q41.14 81.65 41.12 81.65Q41.1 81.63 41.08 81.61Q41.04 81.57 40.99 81.5Q40.97 81.47 40.89 81.34Q40.82 81.21 40.73 81.06Q40.65 80.9 40.58 80.77Q40.5 80.64 40.48 80.6Q40.46 80.57 40.42 80.48Q40.37 80.4 40.37 80.34Q40.37 80.22 40.43 80.18Q40.48 80.14 40.55 80.11Q40.58 80.1 40.6 80.09Q40.64 80.06 40.68 80.03Q40.73 79.98 40.73 79.84Q40.73 79.7 40.66 79.65Q40.66 79.65 40.65 79.65Q40.57 79.61 40.41 79.61Q39.98 79.61 39.55 79.64Q39.12 79.67 38.69 79.67L38.65 79.67Q38.64 79.67 38.61 79.66Q38.58 79.65 38.54 79.64Q38.5 79.64 38.47 79.63L38.44 79.62L38.41 79.62Q38.34 79.62 38.3 79.64L38.3 79.64Q38.27 79.67 38.27 79.74Q38.27 79.79 38.28 79.85Q38.28 79.86 38.29 79.86Q38.3 79.9 38.34 79.93Q38.44 80.02 38.54 80.09Q38.65 80.16 38.74 80.23Q38.84 80.29 38.94 80.37Q39.04 80.45 39.12 80.55Q39.21 80.66 39.28 80.79Q39.31 80.84 39.33 80.9Q39.41 81.08 39.55 81.25Q39.57 81.27 39.6 81.29Q39.6 81.31 39.61 81.31Q39.62 81.31 39.63 81.32L39.64 81.33Q39.65 81.35 39.66 81.39Q39.67 81.43 39.68 81.47Q39.7 81.51 39.71 81.55Q39.73 81.59 39.74 81.59Q39.77 81.64 39.82 81.76Q39.88 81.87 39.9 81.93Q39.91 81.93 39.94 81.99Q39.97 82.04 40.01 82.1Q40.04 82.15 40.07 82.21Q40.11 82.26 40.12 82.28Q40.2 82.48 40.29 82.64Q40.39 82.79 40.58 82.91Q40.58 82.92 40.58 82.96Q40.59 83.01 40.59 83.06Q40.59 83.1 40.6 83.14Q40.6 83.19 40.6 83.21Q40.6 83.23 40.6 83.27Q40.59 83.32 40.59 83.36Q40.59 83.41 40.58 83.45L40.58 83.49Q40.58 83.49 40.56 83.53Q40.53 83.57 40.5 83.62Q40.47 83.66 40.43 83.72Q40.4 83.77 40.37 83.79Q40.37 83.81 40.32 83.85Q40.27 83.9 40.26 83.92Q40.14 84.15 40.01 84.37Q39.88 84.59 39.71 84.8Q39.67 84.83 39.59 84.92Q39.5 85 39.41 85.09Q39.32 85.17 39.23 85.25Q39.15 85.33 39.12 85.36Q39.09 85.38 39.06 85.4Q38.99 85.44 38.91 85.47Q38.79 85.52 38.68 85.56Q38.62 85.59 38.57 85.62Q38.51 85.64 38.46 85.67Q38.43 85.69 38.41 85.71Q38.33 85.76 38.27 85.83L38.27 85.89Q38.27 85.91 38.28 85.95Q38.28 85.97 38.29 85.98Q38.31 86 38.34 86L40.26 86Q40.32 85.98 40.36 85.95Q40.37 85.95 40.37 85.95Q40.41 85.92 40.41 85.83Q40.39 85.8 40.36 85.77Q40.31 85.72 40.23 85.69Q40.12 85.65 40.01 85.62Q39.9 85.58 39.82 85.54Q39.78 85.53 39.76 85.49Q39.74 85.46 39.74 85.41L39.74 85.36Q39.75 85.35 39.77 85.31Q39.79 85.27 39.8 85.26Q39.82 85.24 39.91 85.11Q39.99 84.98 40.09 84.83Q40.19 84.68 40.27 84.55Q40.35 84.42 40.37 84.39Q40.42 84.31 40.46 84.21Q40.5 84.11 40.55 84.02Q40.61 83.92 40.68 83.86Q40.7 83.85 40.71 83.84Q40.78 83.79 40.87 83.79Q40.94 83.79 41.02 83.9Q41.1 84 41.19 84.16Q41.28 84.31 41.37 84.5Q41.46 84.7 41.53 84.88Q41.6 85.06 41.64 85.21Q41.68 85.36 41.68 85.43Q41.68 85.55 41.63 85.6Q41.58 85.65 41.52 85.68Q41.49 85.69 41.46 85.71Q41.43 85.73 41.41 85.75Q41.36 85.79 41.36 85.9L41.36 85.95Q41.39 85.96 41.47 85.98Q41.56 86 41.58 86Q41.61 86 41.71 86Q41.82 86.01 41.94 86.01Q42.06 86.02 42.16 86.02Q42.27 86.03 42.3 86.03Q42.31 86.04 42.35 86.05Q42.4 86.06 42.44 86.08Q42.49 86.09 42.53 86.1Q42.57 86.1 42.58 86.1L42.61 86.1Q42.64 86.1 42.75 86.1Q42.86 86.09 42.98 86.08Q43.11 86.06 43.22 86.05Q43.33 86.04 43.36 86.03Q43.4 86.03 43.47 86.04Q43.53 86.04 43.59 86.04Q43.7 86.04 43.79 86.01Q43.81 86 43.82 85.99Q43.87 85.94 43.87 85.83Q43.87 85.74 43.83 85.69Q43.82 85.67 43.81 85.66Q43.75 85.61 43.65 85.57Q43.56 85.54 43.46 85.51Q43.37 85.48 43.31 85.43Q43.14 85.28 43.01 85.13Q42.9 85 42.81 84.85Q42.79 84.82 42.77 84.8Q42.67 84.62 42.58 84.43Q42.49 84.25 42.41 84.05L42.25 83.75Q42.23 83.73 42.19 83.66Q42.15 83.59 42.09 83.51Q42.04 83.43 41.99 83.37Q41.95 83.3 41.94 83.29L41.9 83.21Q41.87 83.15 41.83 83.08Q41.79 83 41.75 82.92Q41.71 82.84 41.68 82.8Q41.61 82.67 41.54 82.51Q41.46 82.35 41.46 82.21Q41.46 82.14 41.48 82.1Q41.5 82.06 41.52 82.01Q41.58 81.9 41.66 81.78Q41.74 81.67 41.83 81.59Q41.85 81.58 41.88 81.56Q41.9 81.53 41.91 81.51Q41.95 81.46 41.97 81.43Q42 81.41 42.05 81.34Q42.1 81.28 42.17 81.2Q42.23 81.13 42.29 81.06Q42.34 81 42.36 80.98Q42.58 80.72 42.81 80.54Q43.05 80.36 43.36 80.25Q43.45 80.22 43.58 80.2Q43.7 80.18 43.82 80.14Q43.94 80.1 44.02 80.03Q44.02 80.02 44.03 80.01Q44.09 79.94 44.09 79.81Q44.09 79.71 44.06 79.65Q44.04 79.62 44.01 79.6Q43.99 79.58 43.97 79.58Q43.91 79.56 43.83 79.55Q43.75 79.55 43.66 79.55Q43.55 79.55 43.43 79.56Q43.31 79.57 43.19 79.62L41.99 79.62Q41.97 79.62 41.9 79.64Q41.82 79.65 41.78 79.67Q41.75 79.68 41.7 79.69Q41.66 79.71 41.62 79.72Q41.58 79.74 41.55 79.76Q41.53 79.78 41.53 79.8Q41.52 79.81 41.52 79.82Q41.52 79.87 41.54 79.9Q41.57 79.94 41.63 79.96Q41.74 80 41.86 80.03Q41.99 80.06 42.09 80.12Q42.13 80.14 42.15 80.17Q42.2 80.23 42.2 80.32Q42.2 80.39 42.18 80.46Q42.16 80.51 42.13 80.54ZM24.18 86.01Q24.24 86 24.26 86Q24.26 86 24.32 86.01Q24.39 86.02 24.46 86.03Q24.53 86.04 24.59 86.05Q24.65 86.06 24.67 86.06Q24.71 86.06 24.77 86.06Q24.84 86.06 24.88 86.03Q24.89 86.03 24.97 86.01Q25.05 86 25.06 86L25.52 86Q25.55 86 25.65 85.99Q25.76 85.98 25.88 85.97Q25.99 85.97 26.09 85.96Q26.2 85.95 26.23 85.95L26.34 85.95Q26.35 85.95 26.38 85.96Q26.42 85.97 26.46 85.97Q26.5 85.98 26.53 85.99Q26.57 86 26.57 86Q26.63 86 26.75 86.01Q26.86 86.02 26.98 86.02Q27.1 86.02 27.2 86.03Q27.3 86.03 27.33 86.03Q27.34 86.04 27.48 86.04Q27.61 86.04 27.79 86.04L29.07 86.04Q29.26 86.04 29.42 86.04Q29.59 86.04 29.65 86.03Q29.83 85.99 29.91 85.93Q29.96 85.89 30 85.84Q30.01 85.82 30.02 85.8Q30.05 85.71 30.05 85.6Q30.05 85.49 30.06 85.33Q30.06 85.32 30.08 85.26Q30.1 85.2 30.1 85.19L30.1 85.15Q30.11 85.12 30.11 85.07L30.11 84.89Q30.11 84.82 30.1 84.7Q30.1 84.63 30.09 84.57Q30.09 84.51 30.07 84.46Q30.05 84.35 29.98 84.26Q29.96 84.22 29.92 84.2Q29.87 84.18 29.81 84.18Q29.76 84.18 29.75 84.18Q29.74 84.19 29.71 84.22Q29.69 84.25 29.65 84.3Q29.61 84.36 29.56 84.43Q29.51 84.49 29.46 84.55Q29.42 84.61 29.39 84.63Q29.39 84.65 29.35 84.72Q29.31 84.79 29.29 84.8L29.26 84.83Q29.25 84.83 29.23 84.85Q29.21 84.86 29.18 84.88Q29.15 84.9 29.13 84.92Q29.1 84.94 29.1 84.94Q29.1 84.95 29.08 84.98Q29.07 85 29.05 85.03L29.03 85.1Q29.01 85.13 29.01 85.13Q28.99 85.16 28.95 85.21Q28.9 85.26 28.85 85.31Q28.8 85.36 28.76 85.4Q28.72 85.43 28.71 85.44Q28.7 85.45 28.65 85.46Q28.6 85.47 28.54 85.48Q28.48 85.48 28.42 85.49Q28.35 85.5 28.32 85.5L27.17 85.5Q26.97 85.5 26.75 85.53Q26.54 85.56 26.34 85.59L26.3 85.59Q26.25 85.59 26.21 85.58Q26.15 85.55 26.1 85.48Q26.05 85.4 26.03 85.32Q26.02 85.28 26.02 85.24L26.02 85.21Q26.02 85.19 26.03 85.17Q26.03 85.15 26.03 85.13Q26.03 85.11 26.05 85.08Q26.07 85.05 26.07 85.04Q26.07 85.02 26.05 84.97Q26.03 84.91 26.03 84.89L26.03 84.8Q26.03 84.79 26.04 84.72Q26.05 84.66 26.05 84.59Q26.06 84.51 26.07 84.44Q26.07 84.37 26.07 84.35L26.07 82.92Q26.07 82.9 26.08 82.82Q26.09 82.75 26.1 82.66Q26.12 82.58 26.13 82.51Q26.14 82.43 26.14 82.43L26.14 81.55Q26.14 81.24 26.15 80.94Q26.17 80.64 26.23 80.33Q26.24 80.29 26.26 80.26Q26.27 80.25 26.28 80.24Q26.3 80.22 26.32 80.21Q26.34 80.2 26.37 80.19Q26.4 80.19 26.48 80.18Q26.57 80.17 26.68 80.16Q26.78 80.15 26.87 80.14Q26.96 80.13 26.99 80.13Q27.07 80.12 27.18 80.05Q27.3 79.99 27.35 79.95Q27.35 79.94 27.37 79.9Q27.38 79.86 27.38 79.84Q27.38 79.75 27.34 79.69Q27.32 79.67 27.3 79.65Q27.26 79.63 27.22 79.61Q27.15 79.59 27.07 79.58Q26.99 79.58 26.91 79.58Q26.89 79.58 26.88 79.58Q26.87 79.58 26.86 79.58L26.83 79.58Q26.83 79.58 26.79 79.59Q26.75 79.6 26.71 79.6Q26.66 79.61 26.62 79.62Q26.58 79.62 26.57 79.62L26.23 79.62Q26.22 79.62 26.18 79.63Q26.14 79.64 26.08 79.64Q26.03 79.65 25.99 79.66Q25.94 79.67 25.92 79.68L25.78 79.68Q25.75 79.67 25.62 79.66Q25.5 79.65 25.36 79.64Q25.22 79.64 25.1 79.63Q24.97 79.62 24.94 79.62Q24.92 79.62 24.85 79.63Q24.79 79.64 24.72 79.64Q24.65 79.65 24.58 79.66Q24.52 79.67 24.5 79.67Q24.43 79.68 24.29 79.65Q24.15 79.62 24.06 79.62Q24.01 79.62 23.94 79.65Q23.9 79.66 23.87 79.69Q23.84 79.7 23.83 79.71Q23.77 79.75 23.73 79.81Q23.7 79.84 23.69 79.88Q23.69 79.9 23.69 79.92Q23.69 79.99 23.72 80.04Q23.74 80.06 23.77 80.08Q23.85 80.13 23.97 80.15Q24.09 80.17 24.24 80.17Q24.39 80.18 24.52 80.2Q24.65 80.22 24.75 80.26Q24.8 80.29 24.84 80.32Q24.87 80.36 24.88 80.41Q24.88 80.42 24.89 80.47Q24.91 80.51 24.91 80.57Q24.92 80.63 24.93 80.68Q24.94 80.74 24.94 80.77L24.94 81.72Q24.94 81.84 24.93 82.03Q24.92 82.22 24.91 82.41Q24.9 82.59 24.89 82.72Q24.88 82.86 24.88 82.86L24.85 82.95Q24.85 83 24.85 83.09Q24.86 83.18 24.86 83.29Q24.86 83.4 24.85 83.49Q24.85 83.58 24.85 83.62Q24.85 83.7 24.84 83.89Q24.84 84.08 24.83 84.29Q24.82 84.49 24.82 84.67Q24.81 84.84 24.81 84.89Q24.81 84.92 24.8 84.97Q24.8 85.02 24.79 85.09Q24.78 85.15 24.77 85.21Q24.75 85.27 24.75 85.3Q24.75 85.31 24.75 85.33Q24.74 85.35 24.73 85.38Q24.73 85.41 24.72 85.44Q24.69 85.48 24.51 85.49Q24.33 85.5 24.13 85.51Q23.93 85.52 23.77 85.55Q23.62 85.58 23.61 85.65Q23.61 85.65 23.61 85.65L23.61 85.76Q23.61 85.85 23.65 85.91Q23.66 85.93 23.68 85.94Q23.71 85.97 23.75 85.99Q23.82 86.02 23.9 86.02Q23.99 86.03 24.08 86.03L24.11 86.03Q24.11 86.03 24.18 86.01ZM17.26 85.96L17.33 85.96Q17.35 85.96 17.44 85.97Q17.53 85.98 17.64 85.99Q17.75 86 17.84 86.01Q17.93 86.02 17.95 86.02L18.62 86.02Q18.65 86.02 18.72 86.03Q18.79 86.04 18.86 86.04Q18.94 86.05 19.01 86.06Q19.08 86.06 19.11 86.06Q19.21 86.04 19.26 85.97Q19.32 85.9 19.32 85.78Q19.32 85.69 19.27 85.63Q19.26 85.62 19.25 85.61Q19.18 85.54 19.08 85.51Q18.98 85.48 18.86 85.47Q18.75 85.45 18.64 85.42Q18.54 85.39 18.47 85.34Q18.46 85.33 18.45 85.32Q18.4 85.27 18.4 85.18Q18.4 84.99 18.42 84.81Q18.42 84.77 18.43 84.74Q18.45 84.59 18.51 84.46Q18.53 84.44 18.58 84.37Q18.62 84.31 18.62 84.29Q18.62 84.29 18.64 84.24Q18.66 84.2 18.67 84.15Q18.69 84.09 18.71 84.05Q18.73 84.01 18.74 84Q18.74 83.97 18.79 83.92Q18.83 83.92 18.88 83.93Q18.93 83.94 18.98 83.94Q19.22 83.94 19.43 83.9Q19.65 83.87 19.89 83.87L20.03 83.87Q20.16 83.87 20.29 83.89Q20.36 83.9 20.41 83.94Q20.46 83.97 20.5 84.03Q20.52 84.07 20.55 84.13Q20.58 84.2 20.62 84.27Q20.65 84.33 20.67 84.39Q20.7 84.44 20.71 84.46Q20.72 84.47 20.74 84.56Q20.76 84.64 20.79 84.75L20.83 84.97Q20.86 85.08 20.87 85.14L20.88 85.19L20.87 85.24Q20.8 85.34 20.71 85.38Q20.69 85.39 20.67 85.4Q20.56 85.43 20.44 85.46Q20.32 85.49 20.21 85.53Q20.19 85.54 20.18 85.55Q20.09 85.6 20.04 85.71Q20.03 85.72 20.03 85.74L20.03 85.78Q20.03 85.86 20.04 85.9Q20.06 85.93 20.13 85.96Q20.24 85.96 20.52 85.97Q20.8 85.98 21.11 85.99Q21.42 86 21.69 86.01Q21.97 86.02 22.08 86.02L22.36 86.02Q22.45 86.02 22.56 86.01Q22.67 86 22.76 85.97Q22.84 85.94 22.89 85.88Q22.9 85.88 22.91 85.87L22.91 85.87Q22.96 85.8 22.96 85.69Q22.96 85.66 22.95 85.63Q22.93 85.56 22.85 85.51Q22.73 85.44 22.58 85.39Q22.42 85.33 22.28 85.28Q22.13 85.22 22.08 85.14Q21.96 84.98 21.9 84.78Q21.85 84.57 21.82 84.4Q21.81 84.4 21.79 84.36Q21.77 84.32 21.75 84.28Q21.73 84.23 21.72 84.19Q21.71 84.16 21.71 84.15Q21.7 84.14 21.69 84.1Q21.69 84.06 21.68 84.02Q21.66 83.97 21.66 83.94Q21.65 83.9 21.65 83.89Q21.64 83.87 21.62 83.82Q21.6 83.77 21.58 83.72Q21.55 83.67 21.52 83.63Q21.5 83.58 21.49 83.57Q21.44 83.44 21.43 83.35Q21.42 83.25 21.38 83.1Q21.34 82.91 21.26 82.73Q21.18 82.55 21.12 82.37Q21.1 82.28 21.06 82.14Q21.02 82 20.97 81.86Q20.93 81.72 20.9 81.61Q20.87 81.5 20.87 81.48Q20.87 81.46 20.85 81.39Q20.84 81.32 20.82 81.23Q20.8 81.14 20.79 81.07Q20.78 80.99 20.77 80.97Q20.77 80.96 20.76 80.92Q20.74 80.87 20.73 80.81L20.69 80.68Q20.67 80.62 20.67 80.59Q20.65 80.55 20.62 80.43Q20.59 80.32 20.55 80.2Q20.52 80.08 20.47 79.98Q20.41 79.88 20.35 79.86Q20.33 79.85 20.32 79.86Q20.29 79.86 20.27 79.88Q20.26 79.89 20.25 79.9Q20.23 79.92 20.21 79.95Q20.18 79.99 20.16 80.02Q20.14 80.06 20.13 80.07Q20.11 80.09 20.07 80.14Q20.02 80.19 19.97 80.24L19.83 80.39Q19.82 80.4 19.77 80.42Q19.73 80.44 19.68 80.46Q19.62 80.49 19.57 80.51Q19.52 80.53 19.5 80.54Q19.48 80.56 19.42 80.64Q19.37 80.71 19.37 80.76Q19.37 80.77 19.39 80.83Q19.4 80.9 19.4 80.92L19.4 81.02Q19.4 81.09 19.37 81.16Q19.34 81.24 19.3 81.32Q19.26 81.39 19.21 81.46Q19.17 81.53 19.14 81.59Q19.09 81.72 19.04 81.82Q18.99 81.92 18.94 82.04Q18.92 82.06 18.89 82.15Q18.85 82.23 18.8 82.32L18.72 82.48Q18.68 82.56 18.68 82.58Q18.68 82.59 18.65 82.66Q18.63 82.73 18.6 82.81Q18.58 82.88 18.55 82.96Q18.52 83.03 18.51 83.04Q18.5 83.08 18.46 83.18Q18.42 83.28 18.4 83.3Q18.24 83.68 18.06 84.06Q17.87 84.44 17.69 84.81Q17.67 84.83 17.66 84.89Q17.64 84.96 17.64 84.98Q17.64 85 17.61 85.04Q17.6 85.06 17.59 85.07Q17.56 85.1 17.53 85.14Q17.49 85.18 17.45 85.22Q17.41 85.26 17.37 85.29Q17.34 85.33 17.33 85.33Q17.32 85.35 17.26 85.37Q17.21 85.39 17.14 85.42Q17.08 85.45 17.02 85.47Q16.97 85.5 16.95 85.5Q16.87 85.53 16.79 85.57Q16.76 85.58 16.75 85.6Q16.7 85.65 16.7 85.74L16.7 85.76Q16.7 85.77 16.71 85.81Q16.71 85.86 16.72 85.9Q16.74 85.94 16.76 85.98Q16.76 85.98 16.76 85.98Q16.78 86 16.8 86.01Q16.81 86.02 16.83 86.02L16.87 86.02Q16.89 86.02 16.94 86.01Q17 86 17.07 85.99Q17.14 85.98 17.19 85.97Q17.25 85.96 17.26 85.96ZM18.91 83.37Q18.89 83.33 18.89 83.29L18.89 83.21Q18.91 83.14 18.96 82.99Q19.01 82.83 19.07 82.66Q19.12 82.48 19.17 82.32Q19.22 82.17 19.25 82.11Q19.27 82.04 19.29 81.94Q19.31 81.83 19.34 81.73Q19.37 81.63 19.43 81.55Q19.45 81.51 19.49 81.49Q19.52 81.48 19.57 81.48Q19.58 81.48 19.59 81.48Q19.63 81.49 19.66 81.51Q19.7 81.54 19.73 81.6Q19.76 81.65 19.79 81.71Q19.81 81.76 19.83 81.81Q19.94 82.11 20.06 82.42Q20.18 82.73 20.24 83.04L20.24 83.16Q20.24 83.32 20.16 83.39Q20.14 83.41 20.11 83.42Q19.98 83.48 19.81 83.48Q19.73 83.48 19.66 83.47Q19.58 83.47 19.5 83.47L19.14 83.47Q19.07 83.47 18.98 83.42Q18.93 83.4 18.91 83.37Z" fill="#074114" fill-opacity="1.000000" fill-rule="evenodd"/>
</svg>
